<svg width="64" height="64" viewBox="0 0 64 64" fill="none" xmlns="http://www.w3.org/2000/svg">
<path fill-rule="evenodd" clip-rule="evenodd" d="M6 31.5077C6 17.374 17.6454 5.9077 32 5.9077C46.3546 5.9077 58 17.374 58 31.5077C58 45.6414 46.3546 57.1077 32 57.1077C17.6454 57.1077 6 45.6414 6 31.5077ZM32 9.84616C19.8546 9.84616 10 19.5491 10 31.5077C10 43.4663 19.8546 53.1692 32 53.1692C44.1454 53.1692 54 43.4663 54 31.5077C54 19.5491 44.1454 9.84616 32 9.84616Z" fill="#42D3FF"/>
<path fill-rule="evenodd" clip-rule="evenodd" d="M26 21.6615C27.1046 21.6615 28 22.5432 28 23.6308V39.3846C28 40.4722 27.1046 41.3539 26 41.3539C24.8954 41.3539 24 40.4722 24 39.3846V23.6308C24 22.5432 24.8954 21.6615 26 21.6615Z" fill="#42D3FF"/>
<path fill-rule="evenodd" clip-rule="evenodd" d="M38 21.6615C39.1046 21.6615 40 22.5432 40 23.6308V39.3846C40 40.4722 39.1046 41.3539 38 41.3539C36.8954 41.3539 36 40.4722 36 39.3846V23.6308C36 22.5432 36.8954 21.6615 38 21.6615Z" fill="#42D3FF"/>
</svg>
